<?xml version="1.0" encoding="UTF-8"?>
<svg id="Layer_2" data-name="Layer 2" xmlns="http://www.w3.org/2000/svg" viewBox="0 0 59.3 75.83">
  <defs>
    <style>
      .cls-1 {
        fill: #ffc107;
      }

      .cls-2 {
        fill: #ff5722;
      }

      .cls-3 {
        fill: #dd2c00;
      }
    </style>
  </defs>
  <g id="Layer_1-2" data-name="Layer 1">
    <g>
      <path class="cls-3" d="M23.8,0c22.82,9.08,49.25,44.29,27.24,67.04C33.2,85.49.76,72.96,0,47.45-.53,29.06,25.24,18.56,23.8,0Z"/>
      <path class="cls-2" d="M29.68,25.09c-1.56,16.07-23.22,18.84-16.32,36.98,4.37,11.5,19.11,14.49,28.22,6.55,14.36-12.53-.71-34.53-11.89-43.53Z"/>
      <path class="cls-1" d="M30.22,44.02c-2.22,6.1-10.16,9.7-10.46,16.5-.53,11.92,18.79,13.32,19.91.98.66-7.26-4.69-12.93-9.44-17.48Z"/>
    </g>
  </g>
</svg>