<?xml version="1.0" encoding="UTF-8"?>
<svg id="Layer_2" data-name="Layer 2" xmlns="http://www.w3.org/2000/svg" viewBox="0 0 61.3 78.35">
  <defs>
    <style>
      .cls-1 {
        fill: none;
        stroke: #000;
        stroke-miterlimit: 10;
        stroke-width: 2px;
      }
    </style>
  </defs>
  <g id="Layer_1-2" data-name="Layer 1">
    <g>
      <path class="cls-1" d="M24.8,1.52c22.82,9.08,49.25,44.29,27.24,67.04C34.2,87.01,1.76,74.48,1.01,48.97.47,30.58,26.24,20.08,24.8,1.52ZM31.22,45.54c-2.22,6.1-10.16,9.7-10.46,16.5-.53,11.92,18.79,13.32,19.91.98.66-7.26-4.69-12.93-9.44-17.48Z"/>
      <path class="cls-1" d="M30.68,26.61c-1.56,16.07-23.22,18.84-16.32,36.98,4.37,11.5,19.11,14.49,28.22,6.55,14.36-12.53-.71-34.53-11.89-43.53Z"/>
      <path class="cls-1" d="M24.8,1.52c22.82,9.08,49.25,44.29,27.24,67.04C34.2,87.01,1.76,74.48,1.01,48.97.47,30.58,26.24,20.08,24.8,1.52ZM31.22,45.54c-2.22,6.1-10.16,9.7-10.46,16.5-.53,11.92,18.79,13.32,19.91.98.66-7.26-4.69-12.93-9.44-17.48Z"/>
      <path class="cls-1" d="M30.68,26.61c-1.56,16.07-23.22,18.84-16.32,36.98,4.37,11.5,19.11,14.49,28.22,6.55,14.36-12.53-.71-34.53-11.89-43.53Z"/>
    </g>
  </g>
</svg>